<?xml version="1.0" encoding="UTF-8"?>
<svg version="1.1" xmlns="http://www.w3.org/2000/svg" width="1254" height="1254" viewBox="0 0 1254 1254">
<circle cx="627" cy="627" r="627" fill="#EFECE6"/>
<path d="M0 0 C46.16 -0.05 92.32 -0.08 138.48 -0.1 C143.93 -0.1 149.39 -0.11 154.85 -0.11 C155.93 -0.11 157.02 -0.11 158.14 -0.11 C175.7 -0.12 193.26 -0.14 210.82 -0.15 C228.85 -0.17 246.89 -0.18 264.92 -0.19 C276.04 -0.19 287.15 -0.2 298.27 -0.22 C305.91 -0.23 313.55 -0.23 321.18 -0.23 C325.58 -0.23 329.98 -0.23 334.37 -0.24 C376.18 -0.34 376.18 -0.34 395.59 4.22 C398.63 4.92 401.68 5.49 404.75 6.03 C414.36 7.71 423.66 10.22 433 13 C433.72 13.21 434.45 13.43 435.19 13.65 C442.58 15.86 449.85 18.2 456.98 21.17 C458.63 21.85 460.31 22.44 462 23 C481.08 29.36 499.15 38.82 516.62 48.66 C518.67 49.81 520.73 50.95 522.79 52.08 C544.77 64.31 565.35 79.17 585.47 94.21 C589.99 97.57 594.57 100.72 599.34 103.72 C599.89 104.14 600.44 104.57 601 105 C601 105.66 601 106.32 601 107 C594.92 107.15 588.83 107.26 582.75 107.33 C580.68 107.36 578.62 107.4 576.55 107.45 C556.01 107.96 556.01 107.96 547 101 C544.54 99.97 542.24 99.43 539.62 98.81 C538.46 98.53 537.3 98.25 536.1 97.96 C535.15 97.74 535.15 97.74 534.18 97.52 C532.55 97.13 530.93 96.71 529.32 96.28 C493.97 86.89 452.65 88.45 418 100 C415.7 100.09 413.4 100.12 411.1 100.12 C410.04 100.12 410.04 100.12 408.95 100.13 C406.56 100.13 404.16 100.12 401.77 100.12 C400.04 100.12 398.32 100.12 396.59 100.12 C391.83 100.13 387.07 100.12 382.31 100.12 C377.19 100.11 372.06 100.11 366.93 100.11 C358.05 100.11 349.16 100.11 340.27 100.11 C327.42 100.1 314.57 100.09 301.72 100.09 C280.88 100.09 260.03 100.08 239.18 100.08 C218.93 100.07 198.68 100.06 178.42 100.05 C177.18 100.05 175.93 100.05 174.64 100.05 C168.38 100.05 162.12 100.05 155.86 100.05 C103.91 100.04 51.95 100.02 0 100 C0 91.42 0 82.84 0 74 C3.77 74 3.77 74 7.61 73.99 C51.59 73.93 95.57 73.87 139.55 73.8 C140.24 73.8 140.93 73.8 141.64 73.8 C156.61 73.77 171.58 73.75 186.55 73.72 C193.9 73.71 201.24 73.69 208.58 73.68 C209.68 73.68 209.68 73.68 210.8 73.68 C234.46 73.64 258.13 73.61 281.8 73.58 C306.13 73.54 330.46 73.51 354.79 73.46 C358.22 73.45 361.66 73.45 365.1 73.44 C365.78 73.44 366.46 73.44 367.15 73.44 C378.03 73.42 388.91 73.41 399.79 73.39 C410.74 73.38 421.69 73.37 432.63 73.34 C438.56 73.33 444.49 73.32 450.42 73.32 C455.85 73.31 461.28 73.3 466.71 73.29 C468.67 73.28 470.63 73.28 472.59 73.28 C483.26 73.29 493.47 72.92 504 71 C482.84 60.25 482.84 60.25 461 51 C459.46 50.38 457.92 49.75 456.38 49.12 C455.54 48.79 454.7 48.46 453.83 48.12 C451.8 47.32 449.78 46.49 447.76 45.66 C429.38 38.34 410.03 34.18 390.62 30.62 C389.94 30.5 389.25 30.37 388.54 30.24 C386.54 29.87 384.54 29.52 382.54 29.16 C381.4 28.96 380.25 28.76 379.08 28.55 C368.35 26.95 357.52 26.85 346.69 26.84 C345.19 26.84 343.68 26.83 342.18 26.83 C338.08 26.81 333.98 26.81 329.89 26.8 C325.45 26.79 321.02 26.78 316.59 26.76 C308.92 26.74 301.25 26.72 293.58 26.71 C282.5 26.69 271.41 26.66 260.33 26.63 C242.34 26.58 224.35 26.54 206.36 26.5 C188.89 26.46 171.42 26.42 153.95 26.37 C152.87 26.37 151.79 26.37 150.68 26.36 C145.27 26.35 139.87 26.34 134.46 26.32 C89.64 26.21 44.82 26.1 0 26 C0 17.42 0 8.84 0 0 Z" fill="#1C4E80" transform="translate(198,421)"/>
<path d="M0 0 C44.89 -0.25 89.79 -0.45 134.68 -0.56 C139.98 -0.58 145.28 -0.59 150.59 -0.6 C151.64 -0.61 152.7 -0.61 153.78 -0.61 C170.87 -0.66 187.95 -0.75 205.03 -0.85 C222.57 -0.95 240.1 -1.01 257.63 -1.03 C268.45 -1.05 279.26 -1.1 290.08 -1.19 C297.5 -1.25 304.92 -1.26 312.34 -1.25 C316.62 -1.24 320.9 -1.25 325.18 -1.31 C329.1 -1.37 333.02 -1.37 336.95 -1.33 C338.36 -1.33 339.78 -1.34 341.19 -1.37 C348.45 -1.54 353.59 -0.94 359.09 3.87 C360.6 5.32 362.05 6.8 363.49 8.33 C366.65 11.69 370.1 14.17 373.94 16.69 C374.61 17.14 375.29 17.59 375.98 18.05 C377.35 18.96 378.71 19.85 380.08 20.75 C381.85 21.9 383.6 23.08 385.35 24.26 C392.88 29.16 400.49 32.35 408.93 35.25 C411.25 36.09 413.5 37.05 415.77 38 C421.21 40.2 426.71 41.5 432.44 42.69 C433.88 43.01 433.88 43.01 435.35 43.33 C476.54 52.12 520.15 44.18 556.46 23.35 C557.94 22.51 559.47 21.75 561 21 C561.66 21.33 562.32 21.66 563 22 C550.36 29.97 537.42 36.96 523.83 43.16 C522.06 43.97 520.3 44.8 518.55 45.63 C471.2 67.96 420.32 69.15 371.41 51.9 C363.52 48.95 356.08 45.08 348.62 41.19 C347.18 40.44 347.18 40.44 345.7 39.69 C344.74 39.18 343.78 38.68 342.79 38.17 C341.52 37.51 341.52 37.51 340.22 36.83 C337 35 337 35 334.76 33.32 C327.23 27.89 321.45 27 312.3 27.12 C310.95 27.11 309.59 27.1 308.24 27.09 C304.55 27.06 300.85 27.08 297.16 27.1 C293.17 27.12 289.18 27.1 285.19 27.08 C278.28 27.06 271.37 27.06 264.46 27.07 C254.48 27.1 244.49 27.09 234.5 27.07 C218.3 27.03 202.09 27.03 185.89 27.04 C170.15 27.06 154.41 27.06 138.68 27.04 C137.71 27.04 136.74 27.04 135.74 27.04 C130.87 27.03 125.99 27.03 121.12 27.02 C80.75 26.97 40.37 26.97 0 27 C0 18.09 0 9.18 0 0 Z" fill="#1C4E80" transform="translate(198,798)"/>
<path d="M0 0 C1.57 0 1.57 0 3.17 0 C4.37 0 5.57 0 6.8 0 C8.15 0 9.5 0 10.85 0 C12.27 0 13.69 0 15.11 0 C19.03 0 22.95 0 26.87 0.01 C31.09 0.01 35.31 0.01 39.53 0.01 C46.85 0.01 54.17 0.01 61.48 0.02 C72.06 0.03 82.64 0.03 93.22 0.03 C110.39 0.03 127.55 0.04 144.72 0.05 C161.4 0.06 178.07 0.07 194.75 0.07 C195.78 0.07 196.81 0.07 197.87 0.07 C203.02 0.07 208.17 0.07 213.33 0.07 C256.11 0.08 298.89 0.1 341.67 0.12 C339.98 3.68 337.91 6.37 335.36 9.37 C328.59 17.49 328.59 17.49 324.67 27.12 C216.43 27.12 108.19 27.12 -3.33 27.12 C-3.33 0.18 -3.33 0.18 0 0 Z" fill="#1C4E80" transform="translate(201.32993656396866,568.8758015036583)"/>
<path d="M0 0 C101.97 0 203.94 0 309 0 C311.31 7.59 313.62 15.18 316 23 C316.33 23.99 316.66 24.98 317 26 C212.39 26 107.78 26 0 26 C0 17.42 0 8.84 0 0 Z" fill="#1C4E80" transform="translate(199,721)"/>
<path d="M0 0 C100.98 0 201.96 0 306 0 C305.34 8.58 304.68 17.16 304 26 C203.68 26 103.36 26 0 26 C0 17.42 0 8.84 0 0 Z" fill="#1C4E80" transform="translate(199,645)"/>
<path d="M0 0 C2.37 0 4.73 0 7.1 0 C13.51 -0.01 19.92 0.06 26.33 0.13 C32.36 0.2 38.39 0.21 44.41 0.22 C56.34 0.24 68.27 0.31 80.2 0.42 C91.79 0.52 103.37 0.6 114.96 0.64 C115.68 0.65 116.39 0.65 117.13 0.65 C120.71 0.67 124.3 0.68 127.88 0.7 C157.61 0.81 187.34 1.01 217.06 1.25 C217.06 9.5 217.06 17.75 217.06 26.25 C131.59 26.25 46.12 26.25 -41.94 26.25 C-39.48 21.33 -36.11 17.95 -32.31 14.02 C-30.79 12.2 -30.79 12.2 -29.73 9.58 C-23.46 -2.52 -11.91 -0.22 0 0 Z" fill="#1C4E80" transform="translate(837.939453125,765.751220703125)"/>
<path d="M0 0 C86.46 0.33 172.92 0.66 262 1 C262 8.92 262 16.84 262 25 C257.93 25.01 257.93 25.01 253.78 25.02 C228.18 25.1 202.58 25.19 176.98 25.29 C163.82 25.34 150.66 25.38 137.5 25.42 C126.02 25.45 114.55 25.49 103.07 25.54 C97 25.57 90.93 25.59 84.86 25.6 C79.13 25.62 73.4 25.64 67.67 25.67 C65.58 25.68 63.49 25.68 61.41 25.68 C48.15 25.7 35.17 26.43 22 28 C21.65 27.43 21.3 26.86 20.95 26.28 C15.82 18.02 9.14 10.99 2.16 4.27 C0 2 0 2 0 0 Z" fill="#1C4E80" transform="translate(793,557)"/>
<path d="M0 0 C70.95 0 141.9 0 215 0 C215 8.58 215 17.16 215 26 C211.18 26.01 211.18 26.01 207.27 26.02 C183.23 26.1 159.19 26.19 135.15 26.29 C122.79 26.34 110.43 26.38 98.07 26.42 C87.29 26.45 76.51 26.49 65.74 26.54 C60.04 26.57 54.33 26.59 48.63 26.6 C43.25 26.62 37.88 26.64 32.5 26.67 C30.54 26.68 28.57 26.68 26.61 26.68 C15.88 26.7 5.59 27.07 -5 29 C-3.78 19.27 -1.84 9.64 0 0 Z" fill="#1C4E80" transform="translate(841,696)"/>
<path d="M0 0 C2.48 0.14 4.96 0.29 7.44 0.44 C8.14 0.48 8.85 0.52 9.58 0.56 C14.89 0.89 14.89 0.89 16 2 C18.64 2.11 21.26 2.15 23.9 2.16 C24.74 2.16 25.58 2.17 26.44 2.17 C29.27 2.19 32.1 2.2 34.93 2.21 C36.95 2.21 38.97 2.22 40.99 2.24 C46.49 2.26 52 2.28 57.5 2.3 C63.24 2.33 68.98 2.35 74.73 2.38 C85.61 2.43 96.49 2.47 107.38 2.52 C119.76 2.57 132.15 2.62 144.54 2.68 C170.02 2.79 195.51 2.9 221 3 C221 11.25 221 19.5 221 28 C150.05 28 79.1 28 6 28 C1 5 1 5 0 0 Z" fill="#1C4E80" transform="translate(835,624)"/>
<path d="M0 0 C1.57 0 1.57 0 3.17 0 C4.37 0 5.57 0 6.8 0 C8.15 0 9.5 0 10.85 0 C12.27 0 13.69 0 15.11 0 C19.03 0 22.95 0 26.87 0.01 C31.09 0.01 35.31 0.01 39.53 0.01 C46.85 0.01 54.17 0.01 61.48 0.02 C72.06 0.03 82.64 0.03 93.22 0.03 C110.39 0.03 127.55 0.04 144.72 0.05 C161.4 0.06 178.07 0.07 194.75 0.07 C195.78 0.07 196.81 0.07 197.87 0.07 C203.02 0.07 208.17 0.07 213.33 0.07 C256.11 0.08 298.89 0.1 341.67 0.12 C341.67 0.78 341.67 1.44 341.67 2.12 C327.68 2.26 313.69 2.39 299.7 2.52 C293.2 2.57 286.69 2.64 280.19 2.7 C273.88 2.76 267.56 2.82 261.25 2.87 C258.88 2.89 256.51 2.92 254.14 2.94 C217.21 3.3 180.28 3.13 143.35 2.92 C138.19 2.89 133.04 2.87 127.89 2.84 C118.2 2.79 108.52 2.73 98.84 2.68 C87.79 2.62 76.73 2.56 65.68 2.5 C43.01 2.37 20.34 2.25 -2.33 2.12 C-2.33 10.04 -2.33 17.96 -2.33 26.12 C105.58 25.79 213.49 25.46 324.67 25.12 C324.67 25.78 324.67 26.44 324.67 27.12 C216.43 27.12 108.19 27.12 -3.33 27.12 C-3.33 0.18 -3.33 0.18 0 0 Z" fill="#1C4E80" transform="translate(201.32993656396866,568.8758015036583)"/>
<path d="M0 0 C0.99 0.49 0.99 0.49 2 1 C-10.04 8.58 -22.32 15.39 -35.27 21.28 C-37.77 22.42 -40.22 23.6 -42.66 24.84 C-44.38 25.69 -44.38 25.69 -46.12 26.56 C-47.64 27.34 -47.64 27.34 -49.2 28.13 C-52 29 -52 29 -54.87 28.15 C-55.57 27.77 -56.27 27.39 -57 27 C-57 26.34 -57 25.68 -57 25 C-65.42 25.5 -65.42 25.5 -74 26 C-74 25.67 -74 25.34 -74 25 C-73.36 24.91 -72.71 24.81 -72.05 24.71 C-47.91 21.09 -25.81 14.55 -4.54 2.35 C-3.06 1.51 -1.53 0.75 0 0 Z" fill="#1C4E80" transform="translate(759,819)"/>
<path d="M0 0 C0 1.32 0 2.64 0 4 C-2.69 5.62 -2.69 5.62 -6 7 C-8.88 6.19 -8.88 6.19 -11 5 C-11 4.34 -11 3.68 -11 3 C-19.41 3.5 -19.41 3.5 -28 4 C-28 3.67 -28 3.34 -28 3 C-24.83 2.49 -21.67 1.99 -18.5 1.5 C-17.61 1.36 -16.73 1.21 -15.81 1.07 C-10.47 0.24 -5.41 -0.15 0 0 Z" fill="#1C4E80" transform="translate(713,841)"/>
<path d="M0 0 C0.66 0.33 1.32 0.66 2 1 C-21.81 16 -21.81 16 -27 16 C-27.66 15.34 -28.32 14.68 -29 14 C-28 13.58 -26.99 13.15 -25.96 12.71 C-17.86 9.26 -10.11 5.58 -2.48 1.19 C-1.66 0.8 -0.84 0.4 0 0 Z" fill="#1C4E80" transform="translate(759,819)"/>
<path d="M0 0 C7.85 -0.3 7.85 -0.3 11 2 C11.33 2.99 11.66 3.98 12 5 C11.32 4.71 10.64 4.42 9.94 4.12 C6.67 2.87 3.37 1.93 0 1 C0 0.67 0 0.34 0 0 Z" fill="#1C4E80" transform="translate(738,519)"/>
<path d="M0 0 C0.99 0 1.98 0 3 0 C3.66 2.97 4.32 5.94 5 9 C4.34 8.67 3.68 8.34 3 8 C3 7.01 3 6.02 3 5 C2.34 5 1.68 5 1 5 C0.67 3.35 0.34 1.7 0 0 Z" fill="#1C4E80" transform="translate(505,721)"/>
<path d="M0 0 C3.69 0.88 3.69 0.88 7 2 C7 2.66 7 3.32 7 4 C3.7 3.34 0.4 2.68 -3 2 C-2.01 1.34 -1.02 0.68 0 0 Z" fill="#1C4E80" transform="translate(628,458)"/>
</svg>
